<?xml version="1.0" standalone="no"?> <!DOCTYPE svg PUBLIC "-//W3C//DTD SVG 1.0//EN" "http://www.w3.org/TR/2001/REC-SVG-20010904/DTD/svg10.dtd" > <svg xmlns="http://www.w3.org/2000/svg" width="100%" height="100%">
<defs >
<font id="klavikaboldbold1" horiz-adv-x="863" ><font-face
    font-family="Klavika Bold"
    units-per-em="2048"
    panose-1="2 0 8 6 4 0 0 2 0 4"
    ascent="1536"
    descent="-348"
    alphabetic="0" />
<missing-glyph horiz-adv-x="1261" d="M154 0V1364H1108V0H154ZM1008 1262H311L1008 182V1262ZM254 1180V100H948L254 1180Z" />
<glyph unicode=" " glyph-name="space" horiz-adv-x="430" />
<glyph unicode="!" glyph-name="exclam" horiz-adv-x="581" d="M377 473H205L143 829V1405H438V829L377 473ZM438 0H143V340H438V0Z" />
<glyph unicode="&quot;" glyph-name="quotedbl" horiz-adv-x="776" d="M102 897V1405H305V897H102ZM471 897V1405H674V897H471Z" />
<glyph unicode="#" glyph-name="numbersign" horiz-adv-x="1075" d="M625 0L647 326H422L397 0H215L240 326H86L98 500H252L276 829H123L135 1004H289L311 1323H494L471 1004H696L717 1323H899L879 1004H1028L1016 829H866L842 500H989L977 326H829L807 0H625ZM459
829L434 500H659L684 829H459Z" />
<glyph unicode="$" glyph-name="dollar" horiz-adv-x="1075" d="M420 -248V-16Q247 -3 121 45L174 285Q352 233 500 233Q603 233 634 262T666 381Q666 414 665 431T658 467T640 495T606 515T553 533T475 551Q384 569 325 591T226 643T167 720T140 822T133 963Q133
1145 208 1234T473 1339V1575H709V1337Q837 1327 936 1303L905 1051Q749 1085 571 1085Q482 1085 455 1061T428 956Q428 924 428 908T438 874T455 849T491 830T544 812T625 791Q820 742 884 690Q942 644 954 552Q961 505 961 383Q961 289 949 227T905 112T811 30T655
-12V-248H420Z" />
<glyph unicode="%" glyph-name="percent" horiz-adv-x="1785" d="M729 936Q729 868 714 817T662 725T561 661T401 639T241 661T139 724T88 817T72 936V1087Q72 1154 87 1205T139 1298T241 1362T401 1384T560 1362T662 1299T713 1206T729 1087V936ZM502 1104Q502
1150 480 1169T401 1188T322 1169T299 1104V920Q299 874 322 855T401 836Q458 836 480 854T502 920V1104ZM518 53L1067 1384L1247 1313L698 -20L518 53ZM1704 276Q1704 209 1689 158T1637 65T1536 2T1376 -20Q1300 -20 1243 -6T1149 34T1089 98T1057 180T1047 276V428Q1047
495 1062 546T1114 639T1216 703T1376 725T1535 703T1637 640T1688 547T1704 428V276ZM1477 444Q1477 491 1455 509T1376 528T1297 510T1274 444V260Q1274 214 1296 195T1376 176Q1432 176 1454 195T1477 260V444Z" />
<glyph unicode="&amp;" glyph-name="ampersand" horiz-adv-x="1323" d="M1262 803V555H1063V53Q834 -20 557 -20Q333 -20 228 72T123 319V430Q123 532 159 600T281 705Q145 776 145 956V1042Q145 1384 580 1384Q819 1384 1024 1335L987 1098Q790 1137 580 1137Q508
1137 474 1111T440 1028V928Q440 803 559 803H1262ZM418 430V354Q418 289 458 255T567 221Q691 221 784 244V555H580Q504 555 461 524T418 430Z" />
<glyph unicode="&apos;" glyph-name="quotesingle" horiz-adv-x="407" d="M102 897V1405H305V897H102Z" />
<glyph unicode="(" glyph-name="parenleft" horiz-adv-x="667" d="M647 -193L430 -315Q113 77 113 623Q113 1167 430 1561L647 1438Q526 1238 467 1052T408 623T467 194T647 -193Z" />
<glyph unicode=")" glyph-name="parenright" horiz-adv-x="667" d="M238 -315L20 -193Q141 7 200 193T260 623T201 1052T20 1438L238 1561Q555 1167 555 623Q555 77 238 -315Z" />
<glyph unicode="*" glyph-name="asterisk" horiz-adv-x="956" d="M205 758L348 981H82V1118H352L205 1350L319 1425L477 1180L635 1425L750 1350L600 1118H874V981H606L750 758L633 684L477 926L322 684L205 758Z" />
<glyph unicode="+" glyph-name="plus" horiz-adv-x="1075" d="M934 385H655V102H420V385H141V610H420V895H655V610H934V385Z" />
<glyph unicode="," glyph-name="comma" horiz-adv-x="559" d="M426 -20L246 -305L113 -229L229 0H131V340H426V-20Z" />
<glyph unicode="-" glyph-name="hyphen" horiz-adv-x="692" d="M610 451H82V696H610V451Z" />
<glyph unicode="." glyph-name="period" horiz-adv-x="561" d="M428 0H133V340H428V0Z" />
<glyph unicode="/" glyph-name="slash" horiz-adv-x="946" d="M864 1384L354 -240H92L602 1384H864Z" />
<glyph unicode="0" glyph-name="zero" horiz-adv-x="1075" d="M991 981V342Q991 -20 539 -20Q86 -20 86 342V981Q86 1343 539 1343Q991 1343 991 981ZM381 940V383Q381 303 413 271T539 238T664 270T696 383V940Q696 1020 664 1052T539 1085T414 1053T381 940Z" />
<glyph unicode="1" glyph-name="one" horiz-adv-x="1075" d="M170 0V250H414V1036L182 977L123 1227L442 1323H709V250H956V0H170Z" />
<glyph unicode="2" glyph-name="two" horiz-adv-x="1075" d="M756 512Q616 343 537 258H956V0H129V252Q330 458 426 567Q569 731 592 761Q639 824 646 884Q649 908 649 948V985Q649 1038 612 1059T487 1081Q411 1081 313 1070T150 1042L111 1290Q315 1343 502
1343Q737 1343 840 1267T944 1022V969Q944 910 943 883T936 815T920 751T888 688T835 610T756 512Z" />
<glyph unicode="3" glyph-name="three" horiz-adv-x="1075" d="M219 788H446Q542 788 578 816T614 915V999Q614 1063 581 1083T449 1104Q322 1104 166 1075L135 1307Q310 1343 475 1343Q602 1343 687 1325T820 1266T889 1171T909 1036V940Q909 752 772 668Q859
629 896 571T934 416V311Q934 232 913 175T841 72T697 3T467 -20Q269 -20 131 25L162 252Q304 225 457 225Q562 225 600 249T639 334V428Q639 485 603 511T489 537H219V788Z" />
<glyph unicode="4" glyph-name="four" horiz-adv-x="1075" d="M1034 281H899V0H608V281H68V537L479 1323H899V520H1034V281ZM608 520V1073L332 520H608Z" />
<glyph unicode="5" glyph-name="five" horiz-adv-x="1075" d="M647 416Q647 486 618 510T492 539Q310 546 166 549V1323H913V1067H461V788Q525 786 645 780Q731 775 790 752T882 690T928 602T942 489V344Q941 270 929 216T886 116T804 41T672 -4T481 -20Q403 -20
299 -7T117 31L160 268Q308 236 479 236Q579 236 613 264T647 360V416Z" />
<glyph unicode="6" glyph-name="six" horiz-adv-x="1075" d="M547 -20Q419 -20 331 10T198 98T134 221T115 375V874Q115 983 145 1065T227 1199T360 1284T533 1330T743 1343Q842 1343 944 1327L922 1085Q847 1096 784 1096Q580 1096 495 1049T410 877V776Q508
807 635 807Q810 807 895 726T981 463V375Q981 309 970 255T930 148T853 60T728 2T547 -20ZM547 233Q625 233 655 262T686 360V451Q686 509 659 531T586 553Q489 553 410 516V360Q410 288 439 261T547 233Z" />
<glyph unicode="7" glyph-name="seven" horiz-adv-x="1075" d="M999 1073L498 0H195L692 1063H125V1323H999V1073Z" />
<glyph unicode="8" glyph-name="eight" horiz-adv-x="1075" d="M92 432Q92 509 130 565T264 674Q187 724 156 777T125 903V1018Q125 1180 220 1261T537 1343Q758 1343 853 1262T948 1018V903Q948 828 918 776T809 674Q905 622 943 566T981 432V328Q981 140 881
60T537 -20T193 60T92 328V432ZM377 332Q377 268 411 245T537 221Q627 221 661 246T696 332V399Q696 428 693 443T673 477T624 512T532 551Q474 529 443 513T397 478T380 444T377 399V332ZM410 907Q410 859 432 836T541 780Q586 797 611 809T648 838T662 867T664
907V1006Q664 1058 638 1081T537 1104Q462 1104 436 1081T410 1006V907Z" />
<glyph unicode="9" glyph-name="nine" horiz-adv-x="1075" d="M425 1343T528 1343T709 1322T834 1267T910 1180T950 1072T961 948V449Q961 340 931 258T849 124T716 39T543 -7T332 -20Q233 -20 131 -4L147 240Q227 227 291 227Q496 227 581 274T666 446V547Q566
516 440 516Q265 516 180 597T94 860V948Q94 1014 105 1068T145 1175T222 1263T347 1321ZM528 1090Q450 1090 420 1061T389 963V872Q389 814 416 792T489 770Q586 770 666 807V963Q666 1034 637 1062T528 1090Z" />
<glyph unicode=":" glyph-name="colon" horiz-adv-x="561" d="M428 0H133V340H428V0ZM428 596H133V936H428V596Z" />
<glyph unicode=";" glyph-name="semicolon" horiz-adv-x="559" d="M426 596H131V936H426V596ZM426 -20L246 -305L113 -229L229 0H131V340H426V-20Z" />
<glyph unicode="&lt;" glyph-name="less" horiz-adv-x="1075" d="M862 -20L98 424V575L862 1018L954 848L332 500L961 150L862 -20Z" />
<glyph unicode="=" glyph-name="equal" horiz-adv-x="1075" d="M901 614H174V811H901V614ZM901 217H174V414H901V217Z" />
<glyph unicode="&gt;" glyph-name="greater" horiz-adv-x="1075" d="M977 424L213 -20L115 150L743 500L121 848L213 1018L977 575V424Z" />
<glyph unicode="?" glyph-name="question" horiz-adv-x="993" d="M606 0H311V340H606V0ZM498 467L332 692Q435 769 486 810T566 889T601 951T606 1020Q606 1094 565 1128T414 1163Q290 1163 113 1130L72 1384Q271 1425 446 1425Q554 1425 634 1408T765 1359T846
1277T889 1170T901 1036Q901 965 899 927T881 840T844 763T772 684T662 590T498 467Z" />
<glyph unicode="@" glyph-name="at" horiz-adv-x="1478" d="M1098 205L1151 47Q1082 15 990 -2T813 -20Q596 -20 429 70T172 319T82 682Q82 881 164 1039T402 1291T764 1384Q911 1384 1032 1339T1232 1216T1354 1037T1397 823Q1397 753 1383 688T1338 565T1262
464T1152 396T1008 371Q935 371 879 402T803 485Q767 461 708 446T598 430Q526 430 490 470T453 584Q453 615 459 651L489 801Q528 1022 756 1022Q885 1022 1038 954L952 549Q977 530 1022 530Q1085 530 1129 572T1192 677T1212 819Q1212 898 1185 967T1105 1093T964
1181T764 1214Q543 1214 408 1065T272 682Q272 520 343 400T535 218T807 156Q945 156 1098 205ZM807 633L858 850Q840 857 803 863T739 870Q678 870 664 803L631 657Q618 590 684 590Q708 590 746 604T807 633Z" />
<glyph unicode="A" glyph-name="A" horiz-adv-x="1284" d="M846 1364L1264 0H944L870 266H414L340 0H20L436 1364H846ZM641 1094L483 522H797L641 1094Z" />
<glyph unicode="B" glyph-name="B" horiz-adv-x="1171" d="M1110 326Q1110 175 1011 88T715 0H133V1364H672Q877 1364 969 1287T1061 1065V926Q1061 850 1025 798T909 711Q996 690 1053 621T1110 459V326ZM754 901V1020Q754 1116 631 1116H440V805H631Q690 805
722 831T754 901ZM803 367V451Q803 507 770 536T674 565H440V248H631Q713 248 758 273T803 367Z" />
<glyph unicode="C" glyph-name="C" horiz-adv-x="1067" d="M410 918V446Q410 351 451 305T600 258Q767 258 952 291L995 23Q795 -20 600 -20Q351 -20 227 92T102 397V967Q102 1160 226 1272T600 1384Q795 1384 995 1341L952 1073Q767 1106 600 1106Q493 1106 452
1060T410 918Z" />
<glyph unicode="D" glyph-name="D" horiz-adv-x="1224" d="M1122 354Q1122 298 1107 248T1056 151T969 72T839 20T662 0H133V1364H662Q783 1364 874 1335T1018 1256T1096 1144T1122 1010V354ZM815 438V926Q815 1011 775 1051T625 1092H440V272H625Q734 272 774
312T815 438Z" />
<glyph unicode="E" glyph-name="E" horiz-adv-x="1093" d="M991 0H133V1364H991V1092H440V842H948V569H440V272H991V0Z" />
<glyph unicode="F" glyph-name="F" horiz-adv-x="1060" d="M440 0H133V1364H999V1092H440V801H956V528H440V0Z" />
<glyph unicode="G" glyph-name="G" horiz-adv-x="1196" d="M1073 45Q848 -20 602 -20Q359 -20 231 93T102 397V967Q102 1161 230 1272T602 1384Q821 1384 1038 1341L1001 1073Q915 1087 797 1096T602 1106Q495 1106 453 1057T410 920V451Q410 361 452 309T602
256Q689 256 784 268V686H1073V45Z" />
<glyph unicode="H" glyph-name="H" horiz-adv-x="1320" d="M1188 0H881V549H440V0H133V1364H440V821H881V1364H1188V0Z" />
<glyph unicode="I" glyph-name="I" horiz-adv-x="593" d="M451 0H143V1364H451V0Z" />
<glyph unicode="J" glyph-name="J" horiz-adv-x="563" d="M150 -432L-33 -215Q79 -125 106 -90T133 0V1364H440V-47Q440 -139 369 -228T150 -432Z" />
<glyph unicode="K" glyph-name="K" horiz-adv-x="1263" d="M133 0V1364H440V0H133ZM877 0L479 696L848 1364H1194L811 696L1223 0H877Z" />
<glyph unicode="L" glyph-name="L" horiz-adv-x="1021" d="M981 0H133V1364H440V272H981V0Z" />
<glyph unicode="M" glyph-name="M" horiz-adv-x="1609" d="M668 176L430 758L410 0H113L170 1364H477L805 496L1133 1364H1440L1497 0H1200L1180 758L942 176H668Z" />
<glyph unicode="N" glyph-name="N" horiz-adv-x="1384" d="M872 0L426 897V0H133V1364H510L958 424V1364H1251V0H872Z" />
<glyph unicode="O" glyph-name="O" horiz-adv-x="1261" d="M1159 967V397Q1159 333 1142 274T1084 161T984 67T834 4T631 -20T429 3T278 67T178 161T120 274T102 397V967Q102 1031 119 1090T177 1203T278 1297T428 1360T631 1384T833 1361T983 1297T1083 1203T1141
1090T1159 967ZM852 424V940Q852 1112 631 1112T410 940V424Q410 252 631 252T852 424Z" />
<glyph unicode="P" glyph-name="P" horiz-adv-x="1196" d="M1145 799Q1145 604 1032 509T674 414H440V0H133V1364H690Q933 1364 1039 1269T1145 977V799ZM838 829V948Q838 1025 803 1058T674 1092H440V680H674Q770 680 804 715T838 829Z" />
<glyph unicode="Q" glyph-name="Q" horiz-adv-x="1261" d="M686 -360L541 -16Q426 -6 339 33T202 130T127 256T102 397V967Q102 1031 119 1090T177 1203T278 1297T428 1360T631 1384T833 1361T983 1297T1083 1203T1141 1090T1159 967V397Q1159 268 1085 163T856
10L965 -244L686 -360ZM852 424V940Q852 1112 631 1112T410 940V424Q410 252 631 252T852 424Z" />
<glyph unicode="R" glyph-name="R" horiz-adv-x="1316" d="M922 0L621 424H440V0H133V1364H700Q943 1364 1049 1269T1155 977V809Q1155 549 956 467L1286 0H922ZM848 840V948Q848 1027 812 1059T684 1092H440V690H684Q779 690 813 724T848 840Z" />
<glyph unicode="S" glyph-name="S" horiz-adv-x="1114" d="M1032 383Q1032 297 1020 237T975 125T886 44T743 -3T532 -20Q415 -20 298 3T92 68L143 305Q351 240 537 240Q653 240 689 268T725 385Q725 421 724 438T715 476T695 506T654 528T591 549T496 571Q410
590 353 607T252 650T183 703T143 777T122 874T117 1004Q117 1089 130 1148T174 1255T260 1329T395 1370T588 1384Q795 1384 1001 1339L971 1081Q746 1120 592 1120Q490 1120 457 1096T424 995Q424 966 424 952T429 919T436 893T454 873T480 857T520 843T573 828T645
811Q716 794 768 779T861 745T929 708T977 664T1007 614T1023 550T1030 475T1032 383Z" />
<glyph unicode="T" glyph-name="T" horiz-adv-x="1089" d="M1065 1092H698V0H391V1092H25V1364H1065V1092Z" />
<glyph unicode="U" glyph-name="U" horiz-adv-x="1273" d="M844 1364H1151V397Q1151 315 1124 244T1040 112T879 16T637 -20T395 15T235 112T150 244T123 397V1364H430V426Q430 339 478 296T637 252T796 295T844 426V1364Z" />
<glyph unicode="V" glyph-name="V" horiz-adv-x="1208" d="M1208 1364L823 0H385L0 1364H315L604 279L893 1364H1208Z" />
<glyph unicode="W" glyph-name="W" horiz-adv-x="1933" d="M1923 1364L1589 0H1198L969 1036L737 0H346L10 1364H313L545 389L782 1364H1157L1391 389L1620 1364H1923Z" />
<glyph unicode="X" glyph-name="X" horiz-adv-x="1253" d="M1198 1364L799 692L1212 0H891L627 451L362 0H41L453 692L55 1364H377L627 934L877 1364H1198Z" />
<glyph unicode="Y" glyph-name="Y" horiz-adv-x="1155" d="M1155 1364L731 393V0H424V393L0 1364H322L578 731L834 1364H1155Z" />
<glyph unicode="Z" glyph-name="Z" horiz-adv-x="1159" d="M1047 1112L453 252H1057V0H102V250L702 1112H129V1364H1047V1112Z" />
<glyph unicode="[" glyph-name="bracketleft" horiz-adv-x="653" d="M612 -258H154V1618H612V1382H449V-23H612V-258Z" />
<glyph unicode="\" glyph-name="backslash" horiz-adv-x="946" d="M592 -240L82 1384H344L854 -240H592Z" />
<glyph unicode="]" glyph-name="bracketright" horiz-adv-x="653" d="M500 -258H41V-23H205V1382H41V1618H500V-258Z" />
<glyph unicode="^" glyph-name="asciicircum" horiz-adv-x="954" d="M883 858L707 752L475 1163L244 752L72 858L381 1405H569L883 858Z" />
<glyph unicode="_" glyph-name="underscore" horiz-adv-x="909" d="M911 -176H-2V-20H911V-176Z" />
<glyph unicode="`" glyph-name="grave" horiz-adv-x="634" d="M532 1255L430 1100Q292 1176 113 1292L223 1464Q343 1376 532 1255Z" />
<glyph unicode="a" glyph-name="a" horiz-adv-x="1021" d="M909 0H668L647 63Q495 -20 362 -20Q231 -20 167 63T102 283Q102 432 173 497T399 563H614V639Q614 695 603 721T554 762T438 776Q314 776 168 748L129 969Q200 990 301 1004T487 1018Q618 1018 699 998T828
930T892 814T909 637V0ZM614 244V358H473Q425 358 405 343T385 287Q385 245 403 227T465 209Q539 209 614 244Z" />
<glyph unicode="b" glyph-name="b" horiz-adv-x="1099" d="M1018 399Q1018 321 1008 264T968 150T886 59T747 2T539 -20Q332 -20 133 12V1405L428 1446V963Q575 1018 711 1018Q1018 1018 1018 657V399ZM428 707V240Q471 236 549 236Q651 236 687 276T723 397V655Q723
762 616 762Q536 762 428 707Z" />
<glyph unicode="c" glyph-name="c" horiz-adv-x="831" d="M367 616V381Q367 303 404 267T528 231Q622 231 733 256L770 10Q634 -20 528 -20Q286 -20 179 75T72 385V612Q72 826 179 922T528 1018Q635 1018 770 987L733 741Q631 766 528 766Q441 766 404 731T367 616Z" />
<glyph unicode="d" glyph-name="d" horiz-adv-x="1099" d="M82 348V649Q82 1018 418 1018Q556 1018 672 989V1405L967 1446V0H735L705 80Q644 41 558 11T397 -20Q244 -20 163 73T82 348ZM672 313V737Q574 762 483 762Q377 762 377 649V348Q377 236 483 236Q531
236 583 259T672 313Z" />
<glyph unicode="e" glyph-name="e" horiz-adv-x="995" d="M913 395H377V367Q377 282 415 252T557 221Q714 221 860 264L903 43Q731 -20 528 -20Q82 -20 82 385V618Q82 1018 510 1018Q607 1018 679 995T795 935T866 843T903 731T913 604V395ZM635 616V659Q635 719
609 752T512 786Q377 786 377 659V616H635Z" />
<glyph unicode="f" glyph-name="f" horiz-adv-x="755" d="M756 1417L719 1186Q647 1200 588 1200Q523 1200 505 1176T487 1094V977H723L702 735H487V0H193V735H41V977H193V1126Q193 1284 273 1365T530 1446Q620 1446 756 1417Z" />
<glyph unicode="g" glyph-name="g" horiz-adv-x="991" d="M72 571V692Q75 850 171 934T479 1018Q570 1018 649 997H961V858L860 821Q884 767 887 692V571Q887 424 784 339T479 254H449Q406 229 406 199Q406 182 415 171T438 158Q592 141 686 133Q816 122 872 69T928
-111Q928 -285 819 -354T469 -424Q387 -424 276 -411T72 -373L115 -158Q288 -199 442 -199Q567 -199 612 -187T657 -127Q657 -98 641 -88T580 -72L326 -47Q270 -41 235 -32T170 -4T127 49T113 133Q113 229 199 315Q72 392 72 571ZM408 487T479 487T581 510T612
586V680Q612 731 581 757T479 784T377 758T346 680V586Q346 534 377 511Z" />
<glyph unicode="h" glyph-name="h" horiz-adv-x="1132" d="M1010 0H715V659Q715 731 643 731Q572 731 428 657V0H133V1405L424 1446V926Q626 1018 780 1018Q1010 1018 1010 698V0Z" />
<glyph unicode="i" glyph-name="i" horiz-adv-x="561" d="M428 1122H133V1436H428V1122ZM428 0H133V997H428V0Z" />
<glyph unicode="j" glyph-name="j" horiz-adv-x="540" d="M418 1122H123V1436H418V1122ZM147 -424L-31 -231Q-25 -225 -2 -204T26 -178T49 -155T71 -131T88 -109T104 -85T114 -62T121 -35T123 -8V997H418V-47Q418 -133 354 -219T147 -424Z" />
<glyph unicode="k" glyph-name="k" horiz-adv-x="1079" d="M428 0H133V1405L428 1446V0ZM467 502L721 997H1036L774 502L1049 0H733L467 502Z" />
<glyph unicode="l" glyph-name="l" horiz-adv-x="561" d="M428 0H133V1405L428 1446V0Z" />
<glyph unicode="m" glyph-name="m" horiz-adv-x="1714" d="M1010 0H715V659Q715 731 643 731Q605 731 543 709T428 659V0H133V997H352L383 922Q474 966 583 992T780 1018Q908 1018 963 922Q1051 965 1157 991T1362 1018Q1484 1018 1537 935T1591 698V0H1296V659Q1296
731 1225 731Q1187 731 1124 709T1010 659V0Z" />
<glyph unicode="n" glyph-name="n" horiz-adv-x="1132" d="M1010 0H715V659Q715 731 643 731Q605 731 543 709T428 659V0H133V997H352L383 922Q474 966 583 992T780 1018Q1010 1018 1010 698V0Z" />
<glyph unicode="o" glyph-name="o" horiz-adv-x="1064" d="M635 -20T532 -20T350 2T221 62T139 153T95 262T82 383V614Q82 697 103 765T173 892T313 984T532 1018Q635 1018 715 996T844 936T926 845T970 735T983 614V383Q983 318 971 262T926 153T845 63T715 3ZM532
227Q688 227 688 375V623Q688 770 532 770Q377 770 377 623V375Q377 227 532 227Z" />
<glyph unicode="p" glyph-name="p" horiz-adv-x="1099" d="M1018 649V348Q1018 -20 682 -20Q547 -20 428 8V-403L133 -444V997H365L395 918Q455 957 541 987T702 1018Q855 1018 936 925T1018 649ZM428 684V260Q530 236 616 236Q723 236 723 348V649Q723 762 616
762Q569 762 517 739T428 684Z" />
<glyph unicode="q" glyph-name="q" horiz-adv-x="1099" d="M82 598Q82 676 92 734T132 848T214 939T353 996T561 1018Q762 1018 967 983V-403L672 -444V35Q530 -20 389 -20Q82 -20 82 340V598ZM672 291V758Q629 762 551 762Q448 762 413 721T377 600V342Q377 236
483 236Q566 236 672 291Z" />
<glyph unicode="r" glyph-name="r" horiz-adv-x="706" d="M692 739Q520 672 428 608V0H133V997H379L399 901Q448 934 529 970T668 1018L692 739Z" />
<glyph unicode="s" glyph-name="s" horiz-adv-x="886" d="M815 297Q815 135 732 58T444 -20Q364 -20 260 -3T82 39L129 258Q277 213 430 213Q493 213 512 231T532 297Q532 325 530 336T511 361T464 384T371 408Q298 426 251 446T174 488T130 547T111 620T106 719Q106
801 123 855T184 947T301 1001T487 1018Q663 1018 791 985L764 756Q610 784 489 784Q427 784 405 769T383 717Q383 670 402 655T510 621Q583 605 632 590T715 553T769 511T799 455T812 386T815 297Z" />
<glyph unicode="t" glyph-name="t" horiz-adv-x="737" d="M680 16Q572 -20 467 -20Q319 -20 243 40T166 236V760H31V997H166V1237L461 1278V997H688L672 760H461V276Q461 221 522 221Q591 221 645 240L680 16Z" />
<glyph unicode="u" glyph-name="u" horiz-adv-x="1132" d="M123 997H418V338Q418 266 489 266Q527 266 590 288T705 338V997H999V0H780L750 76Q660 32 550 6T352 -20Q230 -20 177 63T123 299V997Z" />
<glyph unicode="v" glyph-name="v" horiz-adv-x="1024" d="M1014 997L700 0H324L10 997H309L512 291L715 997H1014Z" />
<glyph unicode="w" glyph-name="w" horiz-adv-x="1443" d="M915 0L721 651L528 0H209L37 997H307L401 414L575 997H870L1042 414L1137 997H1407L1235 0H915Z" />
<glyph unicode="x" glyph-name="x" horiz-adv-x="1007" d="M969 997L659 502L977 0H680L504 276L328 0H31L348 502L39 997H330L504 725L678 997H969Z" />
<glyph unicode="y" glyph-name="y" horiz-adv-x="1013" d="M573 -403H295L412 0H317L10 997H309L512 291L715 997H1014L700 0L573 -403Z" />
<glyph unicode="z" glyph-name="z" horiz-adv-x="942" d="M94 772V997H848V772L434 225H860V0H92V225L504 772H94Z" />
<glyph unicode="{" glyph-name="braceleft" horiz-adv-x="696" d="M82 664V774H135Q209 774 209 844V1313Q209 1618 498 1618H676V1384H586Q543 1384 524 1365T504 1298V879Q504 670 309 664Q504 657 504 449V29Q504 -18 523 -37T586 -57H676V-291H498Q209 -291
209 14V483Q209 553 135 553H82V664Z" />
<glyph unicode="|" glyph-name="bar" horiz-adv-x="532" d="M369 -430H164V1618H369V-430Z" />
<glyph unicode="}" glyph-name="braceright" horiz-adv-x="696" d="M614 774V664V553H561Q487 553 487 483V14Q487 -291 199 -291H20V-57H111Q153 -57 173 -38T193 29V449Q193 657 387 664Q193 670 193 879V1298Q193 1345 173 1364T111 1384H20V1618H199Q487 1618
487 1313V844Q487 774 561 774H614Z" />
<glyph unicode="~" glyph-name="asciitilde" horiz-adv-x="944" d="M625 383Q579 383 533 403T455 446T392 490T340 510Q294 510 265 475T211 383L51 475Q100 601 169 667T340 733Q374 733 416 713T492 670T563 626T625 606Q669 606 703 644T754 733L913 641Q874
525 803 454T625 383Z" />
</font>
</defs>
</svg>
